<?xml version="1.0" encoding="UTF-8"?>
<svg id="_レイヤー_2" data-name="レイヤー 2" xmlns="http://www.w3.org/2000/svg" xmlns:xlink="http://www.w3.org/1999/xlink" viewBox="0 0 760.19 62.2">
  <defs>
    <style>
      .cls-1 {
        fill: #fff;
      }

      .cls-2 {
        filter: url(#drop-shadow-1);
      }
    </style>
    <filter id="drop-shadow-1" filterUnits="userSpaceOnUse">
      <feOffset dx="0" dy="0"/>
      <feGaussianBlur result="blur" stdDeviation="7.1"/>
      <feFlood flood-color="#b69262" flood-opacity=".6"/>
      <feComposite in2="blur" operator="in"/>
      <feComposite in="SourceGraphic"/>
    </filter>
  </defs>
  <g id="_レイヤー_1-2" data-name="レイヤー 1">
    <g class="cls-2">
      <path class="cls-1" d="M27.44,47.33v1.52H0v-1.49L17.36,30.58c4.15-4.05,7.84-8.33,7.84-14.09,0-6.9-4.73-11.89-11.6-11.89-5.47,0-9.59,2.75-11.82,7.87l-1.46-.78C2.69,6.41,7.09,3.05,13.6,3.05s13.15,4.89,13.15,13.38c0,5.38-2.85,9.94-8.23,15.16L2.53,47.1v.23H27.44Z"/>
      <path class="cls-1" d="M50.74,49.08c-9.2,0-16.36-7.9-16.36-22.93,0-13.02,5.7-23.1,16.36-23.1,9.17,0,16.33,7.9,16.33,23.1,0,12.83-5.67,22.93-16.33,22.93h0Zm14.77-22.93c0-14.38-6.51-21.54-14.77-21.54-9.62,0-14.8,9.1-14.8,21.54,0,14.19,6.51,21.38,14.8,21.38,9.62,0,14.77-9.1,14.77-21.38Z"/>
      <path class="cls-1" d="M100.19,47.33v1.52h-27.44v-1.49l17.36-16.78c4.15-4.05,7.84-8.33,7.84-14.09,0-6.9-4.73-11.89-11.6-11.89-5.47,0-9.59,2.75-11.82,7.87l-1.46-.78c2.36-5.28,6.77-8.65,13.28-8.65s13.15,4.89,13.15,13.38c0,5.38-2.85,9.94-8.23,15.16l-16,15.52v.23h24.91Z"/>
      <path class="cls-1" d="M124.41,25.04c5.8,1.65,9.04,6.19,9.04,11.82,0,7.13-6.03,12.21-13.99,12.21-7.32,0-12.41-3.24-14.74-7.94l1.46-.71c2.11,4.24,6.54,7.09,13.28,7.09s12.44-4.34,12.44-11.01c0-5.8-4.18-10.75-12.86-10.75h-4.37v-1.52h4.99c7.74,0,11.21-4.54,11.21-9.62,0-6.22-5.02-10.01-11.76-10.01-5.8,0-9.3,2.3-11.56,5.54l-1.42-.88c2.62-3.66,6.61-6.22,12.99-6.22,7.39,0,13.31,4.28,13.31,11.6,0,4.6-2.53,8.71-8,10.3v.1h0Z"/>
      <path class="cls-1" d="M191.52,1.72l-16.52,25.69v21.45h-1.52V27.41L157.05,1.72h1.85l15.26,23.94h.13L189.67,1.72h1.85Z"/>
      <path class="cls-1" d="M196.62,6.83c0-1.1,.75-1.81,1.81-1.81s1.81,.71,1.81,1.81c0,1-.75,1.78-1.81,1.78s-1.81-.78-1.81-1.78Zm1.04,9.88h1.46V48.85h-1.46V16.72Z"/>
      <path class="cls-1" d="M236.64,29.51v19.34h-1.46V30.22c0-8.97-4.34-12.25-9.59-12.25-8.1,0-13.51,6.03-13.51,15v15.87h-1.46V16.72h1.46v8.58h.06c2.3-5.47,7.13-8.81,13.44-8.81,6.77,0,11.05,4.67,11.05,13.02Z"/>
      <path class="cls-1" d="M292.35,42.82h-.06c-3.04,3.69-7.71,6.25-14.22,6.25-8.03,0-14.35-5.12-14.35-13.12,0-5.44,3.73-11.34,9.56-14.12v-.1l-6.51-7.19c0-7.9,4.79-13.06,12.83-13.06,5.99,0,10.37,3.27,12.02,8.16l-1.43,.58c-1.43-4.37-5.22-7.22-10.59-7.22-7.26,0-11.18,4.28-11.18,11.08l23.75,26.3h.06c2.49-3.69,3.56-8.29,3.56-12.37h1.52c0,4.41-1.2,9.46-4.05,13.48v.1l6.54,7.26h-2.01l-5.44-6.03Zm-14.29,4.76c6.06,0,10.33-2.43,13.19-5.9v-.06l-16.88-18.66c-5.15,2.36-9.17,7.61-9.17,12.99,0,6.48,5.05,11.63,12.86,11.63h0Z"/>
      <path class="cls-1" d="M356.77,1.72l-16.52,25.69v21.45h-1.52V27.41L322.31,1.72h1.85l15.26,23.94h.13l15.39-23.94h1.85Z"/>
      <path class="cls-1" d="M387.24,16.72V48.85h-1.46v-8.81h-.06c-2.3,5.31-7.32,9.04-13.86,9.04-8.78,0-15.91-6.38-15.91-15.97s6.38-16.62,15.97-16.62c6.06,0,11.34,3.53,13.77,9.27h.1v-9.04h1.46Zm-15.39,30.87c7.68,0,13.93-5.8,13.93-14.48s-5.57-15.13-13.86-15.13-14.48,6.09-14.48,15.13c0,8,5.73,14.48,14.42,14.48h0Z"/>
      <path class="cls-1" d="M423.92,29.51v19.34h-1.46V30.22c0-8.97-4.34-12.25-9.59-12.25-8.1,0-13.51,6.03-13.51,15v15.87h-1.46V16.72h1.46v8.58h.06c2.3-5.47,7.13-8.81,13.44-8.81,6.77,0,11.05,4.67,11.05,13.02Z"/>
      <path class="cls-1" d="M463.07,16.71v31.46c0,8.29-4.89,14.03-14.71,14.03-4.79,0-8.84-1.13-13.09-3.73l.42-1.56c4.18,2.69,8.1,3.79,12.76,3.79,9.01,0,13.15-5.38,13.15-12.83v-8.71h-.1c-2.27,5.31-7.13,8.91-13.86,8.91-8.55,0-15.49-6.28-15.49-16.04,0-8.52,6.22-15.55,15.55-15.55,6.25,0,11.44,3.3,13.8,8.62h.1v-8.39h1.46Zm-15.42,29.87c8.62,0,13.96-6.32,13.96-14.54s-6.03-14.06-13.9-14.06c-8.46,0-14.06,6.35-14.06,14.06,0,8.88,6.22,14.54,13.99,14.54h0Z"/>
      <path class="cls-1" d="M514.38,49.08c-12.63,0-23-8.29-23-23.55,0-13.35,8.07-24.04,23-24.04,6.48,0,12.92,2.62,17.95,8.91l-1.26,1c-4.67-5.93-10.66-8.36-16.68-8.36-13.93,0-21.44,9.85-21.44,22.48,0,14.32,9.59,22,21.44,22,7.65,0,12.8-3.37,16.68-8.26l1.26,.97c-4.15,5.18-9.69,8.84-17.95,8.84h0Z"/>
      <path class="cls-1" d="M569.07,16.72V48.85h-1.46v-8.81h-.06c-2.3,5.31-7.32,9.04-13.87,9.04-8.78,0-15.91-6.38-15.91-15.97s6.38-16.62,15.97-16.62c6.06,0,11.34,3.53,13.77,9.27h.1v-9.04h1.46Zm-15.39,30.87c7.68,0,13.93-5.8,13.93-14.48s-5.57-15.13-13.87-15.13-14.48,6.09-14.48,15.13c0,8,5.73,14.48,14.42,14.48h0Z"/>
      <path class="cls-1" d="M580.1,0h1.46V48.85h-1.46V0Z"/>
      <path class="cls-1" d="M592.29,32.75v.06c0,8.52,5.7,14.77,13.77,14.77,5.09,0,8.91-2.04,11.5-5.34l1.13,.84c-2.75,3.73-6.96,5.99-12.5,5.99-9.04,0-15.39-6.9-15.39-16.26s6.64-16.33,15.26-16.33,14.03,6.54,14.03,15.32c0,.16-.03,.84-.06,.94h-27.73Zm.07-1.46h26.24c-.52-8.03-5.34-13.31-12.54-13.31s-13.02,5.6-13.7,13.31Z"/>
      <path class="cls-1" d="M654.73,29.51v19.34h-1.46V30.22c0-8.97-4.34-12.25-9.59-12.25-8.1,0-13.51,6.03-13.51,15v15.87h-1.46V16.72h1.46v8.58h.06c2.3-5.47,7.13-8.81,13.44-8.81,6.77,0,11.05,4.67,11.05,13.02Z"/>
      <path class="cls-1" d="M694.3,0V48.85h-1.46v-8.81h-.1c-2.3,5.31-7.32,9.04-13.83,9.04-8.81,0-15.94-6.38-15.94-15.97s6.38-16.62,15.94-16.62c6.09,0,11.37,3.53,13.8,9.27h.13V0h1.46Zm-15.39,47.59c7.65,0,13.93-5.8,13.93-14.48s-5.6-15.13-13.93-15.13-14.48,6.09-14.48,15.13c0,8,5.77,14.48,14.48,14.48h0Z"/>
      <path class="cls-1" d="M734.35,16.72V48.85h-1.46v-8.81h-.06c-2.3,5.31-7.32,9.04-13.87,9.04-8.78,0-15.91-6.38-15.91-15.97s6.38-16.62,15.97-16.62c6.06,0,11.34,3.53,13.77,9.27h.1v-9.04h1.46Zm-15.39,30.87c7.68,0,13.93-5.8,13.93-14.48s-5.57-15.13-13.87-15.13-14.48,6.09-14.48,15.13c0,8,5.73,14.48,14.42,14.48h0Z"/>
      <path class="cls-1" d="M760.19,16.55v1.55c-.68-.06-1.33-.13-1.94-.13-7.06,0-11.76,6.03-11.76,14.84v16.03h-1.46V16.72h1.46v7.94h.1c1.91-5.02,5.86-8.16,11.47-8.16,.75,0,1.46,0,2.14,.06Z"/>
    </g>
  </g>
</svg>