<svg xmlns="http://www.w3.org/2000/svg" viewBox="0 0 747.5 61.26"><defs><style>.a{fill:#fff;}</style></defs><path class="a" d="M27,46.61v1.5H0V46.65L17.1,30.12c4.09-4,7.72-8.2,7.72-13.88,0-6.8-4.65-11.71-11.42-11.71C8,4.53,4,7.24,1.75,12.28L.32,11.52A13.56,13.56,0,0,1,13.4,3a12.67,12.67,0,0,1,13,13.18c0,5.29-2.8,9.79-8.1,14.93L2.49,46.39v.22Z"/><path class="a" d="M33.85,25.75C33.85,12.92,39.47,3,50,3c9,0,16.08,7.78,16.08,22.75,0,12.63-5.59,22.59-16.08,22.59C40.91,48.34,33.85,40.55,33.85,25.75ZM50,46.81c9.47,0,14.55-9,14.55-21.06C64.52,11.58,58.1,4.53,50,4.53c-9.48,0-14.58,9-14.58,21.22,0,14,6.41,21.06,14.58,21.06Z"/><path class="a" d="M98.66,46.61v1.5h-27V46.65l17.1-16.53c4.09-4,7.72-8.2,7.72-13.88C96.45,9.44,91.8,4.53,85,4.53c-5.39,0-9.44,2.71-11.64,7.75L72,11.52A13.56,13.56,0,0,1,85,3,12.68,12.68,0,0,1,98,16.18c0,5.29-2.81,9.79-8.11,14.93L74.12,46.39v.22Z"/><path class="a" d="M130.75,46.61v1.5h-27V46.65l17.1-16.53c4.09-4,7.72-8.2,7.72-13.88,0-6.8-4.66-11.71-11.42-11.71-5.39,0-9.44,2.71-11.65,7.75l-1.43-.76A13.56,13.56,0,0,1,117.13,3a12.67,12.67,0,0,1,13,13.18c0,5.29-2.8,9.79-8.1,14.93L106.22,46.39v.22Z"/><path class="a" d="M187.62,1.69,171.35,27V48.11h-1.5V27L153.67,1.69h1.82l15,23.58h.12L185.8,1.69Z"/><path class="a" d="M192.63,6.73a1.79,1.79,0,0,1,3.57,0,1.79,1.79,0,0,1-3.57,0Zm1,9.73h1.43V48.11h-1.43Z"/><path class="a" d="M232,29.07v19H230.6V29.77c0-8.84-4.27-12.06-9.44-12.06-8,0-13.31,5.93-13.31,14.77V48.11h-1.43V16.46h1.43v8.46h.07a13.76,13.76,0,0,1,13.24-8.68C227.83,16.24,232,20.83,232,29.07Z"/><path class="a" d="M286.89,42.18h-.07c-3,3.64-7.59,6.16-14,6.16-7.91,0-14.14-5-14.14-12.92,0-5.36,3.67-11.17,9.42-13.92v-.09l-6.42-7.08c0-7.79,4.73-12.86,12.64-12.86,5.9,0,10.21,3.22,11.84,8l-1.41.57C283.35,5.77,279.61,3,274.32,3c-7.15,0-11,4.21-11,10.91L286.7,39.79h.06a22.18,22.18,0,0,0,3.51-12.19h1.5a23.35,23.35,0,0,1-4,13.27V41l6.45,7.14h-2Zm-14.07,4.69c6,0,10.18-2.39,13-5.81V41L269.18,22.62c-5.07,2.33-9,7.5-9,12.8,0,6.38,5,11.45,12.67,11.45Z"/><path class="a" d="M350.32,1.69,334.05,27V48.11h-1.5V27L316.37,1.69h1.82l15,23.58h.13L348.5,1.69Z"/><path class="a" d="M380.32,16.46V48.11h-1.44V39.44h-.06a14.54,14.54,0,0,1-13.66,8.9A15.24,15.24,0,0,1,349.5,32.61c0-9,6.28-16.37,15.73-16.37a14.6,14.6,0,0,1,13.56,9.13h.09V16.46ZM365.16,46.87c7.56,0,13.72-5.71,13.72-14.26,0-8.2-5.49-14.9-13.65-14.9-7.89,0-14.27,6-14.27,14.9,0,7.88,5.65,14.26,14.2,14.26Z"/><path class="a" d="M405.56,16.24c6.66,0,10.88,4.59,10.88,12.83v19H415V29.77c0-8.84-4.28-12.06-9.44-12.06-8,0-13.31,5.93-13.31,14.77V48.11h-1.44V16.46h1.44v8.46h.06a13.77,13.77,0,0,1,13.24-8.68Z"/><path class="a" d="M455,16.46v31c0,8.17-4.82,13.82-14.49,13.82a23.51,23.51,0,0,1-12.89-3.67l.42-1.53a21.88,21.88,0,0,0,12.57,3.73c8.87,0,13-5.3,13-12.63V38.57h-.09a14.21,14.21,0,0,1-13.66,8.78c-8.42,0-15.25-6.19-15.25-15.8a14.9,14.9,0,0,1,15.31-15.31,14.44,14.44,0,0,1,13.6,8.49h.09V16.46ZM439.79,45.88c8.49,0,13.75-6.22,13.75-14.33,0-8.26-5.93-13.84-13.69-13.84A13.46,13.46,0,0,0,426,31.55c0,8.75,6.12,14.33,13.78,14.33Z"/><path class="a" d="M505.49,48.34c-12.44,0-22.65-8.17-22.65-23.2,0-13.14,7.94-23.67,22.65-23.67a22.11,22.11,0,0,1,17.68,8.77l-1.25,1A20.37,20.37,0,0,0,505.49,3c-13.72,0-21.12,9.7-21.12,22.14,0,14.1,9.44,21.67,21.12,21.67,7.53,0,12.6-3.32,16.43-8.14l1.25,1c-4.09,5.1-9.54,8.71-17.68,8.71Z"/><path class="a" d="M559.35,16.46V48.11h-1.44V39.44h-.06a14.54,14.54,0,0,1-13.66,8.9,15.24,15.24,0,0,1-15.67-15.73c0-9,6.29-16.37,15.73-16.37a14.58,14.58,0,0,1,13.56,9.13h.1V16.46ZM544.19,46.87c7.56,0,13.72-5.71,13.72-14.26,0-8.2-5.49-14.9-13.66-14.9-7.88,0-14.26,6-14.26,14.9,0,7.88,5.65,14.26,14.2,14.26Z"/><path class="a" d="M570.19,0h1.44V48.11h-1.44Z"/><path class="a" d="M582.2,32.26v.06c0,8.39,5.61,14.55,13.56,14.55a13.75,13.75,0,0,0,11.32-5.26l1.12.82a14.65,14.65,0,0,1-12.32,5.91c-8.9,0-15.15-6.8-15.15-16s6.54-16.08,15-16.08c8.2,0,13.81,6.44,13.81,15.09a8.55,8.55,0,0,1-.06.93Zm.06-1.44H608.1c-.51-7.91-5.26-13.11-12.34-13.11S582.93,23.23,582.26,30.82Z"/><path class="a" d="M632.8,16.24c6.67,0,10.88,4.59,10.88,12.83v19h-1.43V29.77c0-8.84-4.28-12.06-9.45-12.06-8,0-13.3,5.93-13.3,14.77V48.11h-1.44V16.46h1.44v8.46h.06a13.77,13.77,0,0,1,13.24-8.68Z"/><path class="a" d="M682.64,0V48.11H681.2V39.44h-.09a14.52,14.52,0,0,1-13.63,8.9c-8.67,0-15.69-6.29-15.69-15.73,0-9,6.28-16.37,15.69-16.37a14.61,14.61,0,0,1,13.6,9.13h.12V0ZM667.48,46.87c7.53,0,13.72-5.71,13.72-14.26,0-8.2-5.52-14.9-13.72-14.9-7.85,0-14.26,6-14.26,14.9,0,7.88,5.68,14.26,14.26,14.26Z"/><path class="a" d="M722.07,16.46V48.11h-1.43V39.44h-.06a14.55,14.55,0,0,1-13.66,8.9,15.24,15.24,0,0,1-15.67-15.73c0-9,6.29-16.37,15.73-16.37a14.58,14.58,0,0,1,13.56,9.13h.1V16.46ZM706.92,46.87c7.56,0,13.72-5.71,13.72-14.26,0-8.2-5.49-14.9-13.66-14.9-7.88,0-14.26,6-14.26,14.9,0,7.88,5.65,14.26,14.2,14.26Z"/><path class="a" d="M745.4,16.24c.73,0,1.43,0,2.1.06v1.53c-.67-.06-1.3-.12-1.91-.12-7,0-11.58,5.93-11.58,14.61V48.11h-1.44V16.46H734v7.82h.09c1.89-5,5.78-8,11.3-8Z"/></svg>