<svg xmlns="http://www.w3.org/2000/svg" viewBox="0 0 748.26 62.2"><defs><style>.cls-1{fill:#fff;}</style></defs><g id="レイヤー_2" data-name="レイヤー 2"><g id="レイヤー_1-2" data-name="レイヤー 1"><path class="cls-1" d="M27.44,47.33v1.52H0V47.36L17.36,30.58c4.15-4,7.84-8.33,7.84-14.09,0-6.9-4.73-11.89-11.59-11.89C8.13,4.6,4,7.35,1.78,12.47L.32,11.69A13.77,13.77,0,0,1,13.61,3.05,12.86,12.86,0,0,1,26.76,16.42c0,5.38-2.85,10-8.23,15.16L2.53,47.1v.23Z"/><path class="cls-1" d="M50.74,49.08c-9.2,0-16.36-7.91-16.36-22.94,0-13,5.71-23.1,16.36-23.1C59.91,3,67.07,11,67.07,26.14c0,12.83-5.67,22.94-16.33,22.94ZM65.52,26.14C65.52,11.76,59,4.6,50.74,4.6c-9.62,0-14.8,9.1-14.8,21.54,0,14.19,6.51,21.38,14.8,21.38C60.37,47.52,65.52,38.42,65.52,26.14Z"/><path class="cls-1" d="M100.19,47.33v1.52H72.75V47.36L90.12,30.58c4.14-4,7.84-8.33,7.84-14.09C98,9.59,93.23,4.6,86.36,4.6c-5.47,0-9.59,2.75-11.82,7.87l-1.46-.78A13.75,13.75,0,0,1,86.36,3.05,12.86,12.86,0,0,1,99.51,16.42c0,5.38-2.85,10-8.23,15.16l-16,15.52v.23Z"/><path class="cls-1" d="M116.57,5.28l-10.76,8.16-.91-1.23,11.67-8.94h1.52V48.85h-1.52Z"/><path class="cls-1" d="M179.59,1.72,163.07,27.41V48.85h-1.52V27.41L145.13,1.72H147l15.26,23.94h.13L177.75,1.72Z"/><path class="cls-1" d="M184.7,6.83a1.81,1.81,0,0,1,3.62,0,1.81,1.81,0,0,1-3.62,0Zm1,9.89h1.46V48.85h-1.46Z"/><path class="cls-1" d="M224.71,29.51V48.85h-1.45V30.22c0-9-4.34-12.24-9.59-12.24-8.1,0-13.51,6-13.51,15V48.85H198.7V16.72h1.46V25.3h.06a14,14,0,0,1,13.45-8.81C220.44,16.49,224.71,21.15,224.71,29.51Z"/><path class="cls-1" d="M280.42,42.82h-.06c-3.05,3.7-7.71,6.26-14.22,6.26-8,0-14.35-5.12-14.35-13.12,0-5.44,3.72-11.34,9.55-14.13v-.09l-6.51-7.19c0-7.91,4.8-13.06,12.83-13.06,6,0,10.37,3.27,12,8.16l-1.43.59C276.83,5.86,273,3,267.66,3c-7.25,0-11.17,4.28-11.17,11.08L280.23,40.4h.07A22.6,22.6,0,0,0,283.86,28h1.52a23.76,23.76,0,0,1-4.05,13.48v.09l6.55,7.26h-2Zm-14.28,4.77c6.06,0,10.33-2.43,13.18-5.9v-.06L262.44,23c-5.15,2.36-9.16,7.61-9.16,13,0,6.48,5,11.63,12.86,11.63Z"/><path class="cls-1" d="M344.85,1.72,328.33,27.41V48.85h-1.52V27.41L310.38,1.72h1.85l15.26,23.94h.13L343,1.72Z"/><path class="cls-1" d="M375.32,16.72V48.85h-1.46V40h-.07a14.75,14.75,0,0,1-13.86,9c-8.78,0-15.91-6.38-15.91-16,0-9.11,6.39-16.62,16-16.62a14.81,14.81,0,0,1,13.77,9.26h.1v-9ZM359.93,47.59c7.68,0,13.93-5.8,13.93-14.48C373.86,24.78,368.29,18,360,18c-8,0-14.48,6.09-14.48,15.13,0,8,5.74,14.48,14.42,14.48Z"/><path class="cls-1" d="M401,16.49c6.77,0,11,4.66,11,13V48.85h-1.46V30.22c0-9-4.34-12.24-9.58-12.24-8.1,0-13.51,6-13.51,15V48.85H386V16.72h1.46V25.3h.06A14,14,0,0,1,401,16.49Z"/><path class="cls-1" d="M451.15,16.71V48.17c0,8.29-4.89,14-14.71,14a23.89,23.89,0,0,1-13.09-3.73l.43-1.55a22.29,22.29,0,0,0,12.76,3.79c9,0,13.15-5.38,13.15-12.83V39.16h-.1a14.4,14.4,0,0,1-13.86,8.91c-8.55,0-15.49-6.28-15.49-16,0-8.52,6.22-15.55,15.55-15.55a14.65,14.65,0,0,1,13.8,8.61h.1V16.72ZM435.73,46.58c8.62,0,14-6.32,14-14.54,0-8.39-6-14.06-13.9-14.06A13.67,13.67,0,0,0,421.73,32c0,8.87,6.22,14.54,14,14.54Z"/><path class="cls-1" d="M502.46,49.08c-12.64,0-23-8.29-23-23.55,0-13.35,8.06-24,23-24A22.42,22.42,0,0,1,520.4,10.4l-1.26,1a20.72,20.72,0,0,0-16.69-8.35C488.52,3.05,481,12.89,481,25.53c0,14.32,9.59,22,21.44,22,7.65,0,12.8-3.37,16.69-8.26l1.26,1c-4.15,5.19-9.69,8.85-17.95,8.85Z"/><path class="cls-1" d="M557.15,16.72V48.85h-1.46V40h-.06a14.76,14.76,0,0,1-13.87,9,15.47,15.47,0,0,1-15.9-16c0-9.11,6.38-16.62,16-16.62a14.81,14.81,0,0,1,13.77,9.26h.09v-9ZM541.76,47.59c7.68,0,13.93-5.8,13.93-14.48,0-8.33-5.57-15.13-13.86-15.13-8,0-14.48,6.09-14.48,15.13,0,8,5.73,14.48,14.41,14.48Z"/><path class="cls-1" d="M568.18,0h1.46V48.85h-1.46Z"/><path class="cls-1" d="M580.37,32.75v.07c0,8.51,5.7,14.77,13.77,14.77a14,14,0,0,0,11.5-5.35l1.13.84a14.85,14.85,0,0,1-12.5,6c-9,0-15.39-6.9-15.39-16.26s6.64-16.33,15.26-16.33c8.32,0,14,6.54,14,15.32a8.6,8.6,0,0,1-.07.94Zm.07-1.46h26.23c-.51-8-5.34-13.31-12.53-13.31S581.12,23.58,580.44,31.29Z"/><path class="cls-1" d="M642.81,29.51V48.85h-1.46V30.22c0-9-4.34-12.24-9.59-12.24-8.09,0-13.51,6-13.51,15V48.85H616.8V16.72h1.45V25.3h.07a14,14,0,0,1,13.44-8.81C638.53,16.49,642.81,21.15,642.81,29.51Z"/><path class="cls-1" d="M682.38,0V48.85h-1.46V40h-.1a14.74,14.74,0,0,1-13.83,9c-8.81,0-15.94-6.38-15.94-16,0-9.11,6.38-16.62,15.94-16.62a14.82,14.82,0,0,1,13.8,9.26h.13V0ZM667,47.59c7.64,0,13.93-5.8,13.93-14.48C680.92,24.78,675.31,18,667,18c-8,0-14.48,6.09-14.48,15.13,0,8,5.77,14.48,14.48,14.48Z"/><path class="cls-1" d="M722.43,16.72V48.85H721V40h-.06a14.76,14.76,0,0,1-13.87,9,15.47,15.47,0,0,1-15.9-16c0-9.11,6.38-16.62,16-16.62a14.81,14.81,0,0,1,13.77,9.26H721v-9ZM707,47.59c7.68,0,13.93-5.8,13.93-14.48C721,24.78,715.4,18,707.11,18c-8,0-14.48,6.09-14.48,15.13,0,8,5.73,14.48,14.41,14.48Z"/><path class="cls-1" d="M748.26,16.55v1.56a19.14,19.14,0,0,0-1.94-.13c-7.06,0-11.76,6-11.76,14.84v16H733.1V16.72h1.46v7.93h.1c1.91-5,5.86-8.16,11.47-8.16C746.87,16.49,747.58,16.49,748.26,16.55Z"/></g></g></svg>