<svg id="_レイヤー_2" data-name="レイヤー_2" xmlns="http://www.w3.org/2000/svg" viewBox="0 0 761.48 62.2"><defs><filter id="drop-shadow-1" x="0" y="0" width="761.48" height="62.2" filterUnits="userSpaceOnUse"><feOffset/><feGaussianBlur result="blur" stdDeviation="7.1"/><feFlood flood-color="#b69262" flood-opacity=".6"/><feComposite in2="blur" operator="in"/><feComposite in="SourceGraphic"/></filter><style>.cls-2{fill:#fff}</style></defs><g style="filter:url(#drop-shadow-1)" id="_レイヤー_1-2" data-name="レイヤー_1"><path class="cls-2" d="M27.44 47.33v1.52H0v-1.49l17.36-16.78c4.15-4.05 7.84-8.33 7.84-14.09 0-6.9-4.73-11.89-11.6-11.89-5.47 0-9.59 2.75-11.82 7.87l-1.46-.78C2.69 6.41 7.09 3.05 13.6 3.05s13.15 4.89 13.15 13.38c0 5.38-2.85 9.94-8.23 15.16L2.53 47.1v.23h24.91zM50.74 49.08c-9.2 0-16.36-7.9-16.36-22.93 0-13.02 5.7-23.1 16.36-23.1 9.17 0 16.33 7.9 16.33 23.1 0 12.83-5.67 22.93-16.33 22.93zm14.78-22.94c0-14.38-6.51-21.54-14.77-21.54-9.62 0-14.8 9.1-14.8 21.54 0 14.19 6.51 21.38 14.8 21.38 9.62 0 14.77-9.1 14.77-21.38zM100.19 47.33v1.52H72.75v-1.49l17.36-16.78c4.15-4.05 7.84-8.33 7.84-14.09 0-6.9-4.73-11.89-11.6-11.89-5.47 0-9.59 2.75-11.82 7.87l-1.46-.78c2.36-5.28 6.77-8.65 13.28-8.65S99.5 7.93 99.5 16.42c0 5.38-2.85 9.94-8.23 15.16l-16 15.52v.23h24.91zM119.77 20.54c8.49 0 15.35 5.12 15.35 14.32 0 8.49-6.9 14.22-15.35 14.22-6.38 0-12.02-3.27-14.42-8.03l1.46-.65c2.33 4.34 7.16 7.13 12.96 7.13 7.77 0 13.8-5.18 13.8-12.67 0-8.23-6.03-12.76-13.8-12.76-3.4 0-7.16.81-9.2 2.75l-1.43-.16 1.23-21.41h22.94V4.8H111.8l-1.04 18.21c2.82-1.91 7.13-2.46 9.01-2.46zM192.81 1.72l-16.52 25.69v21.45h-1.52V27.41L158.35 1.72h1.85l15.26 23.94h.13l15.39-23.94h1.85zM197.91 6.83c0-1.1.75-1.81 1.81-1.81s1.81.71 1.81 1.81c0 1-.75 1.78-1.81 1.78s-1.81-.78-1.81-1.78zm1.04 9.89h1.46v32.13h-1.46V16.72zM237.93 29.51v19.34h-1.46V30.22c0-8.97-4.34-12.25-9.59-12.25-8.1 0-13.51 6.03-13.51 15v15.87h-1.46V16.72h1.46v8.58h.06c2.3-5.47 7.13-8.81 13.44-8.81 6.77 0 11.05 4.67 11.05 13.02zM293.64 42.82h-.06c-3.04 3.69-7.71 6.25-14.22 6.25-8.03 0-14.35-5.12-14.35-13.12 0-5.44 3.73-11.34 9.56-14.12v-.1l-6.51-7.19c0-7.9 4.79-13.06 12.83-13.06 5.99 0 10.37 3.27 12.02 8.16l-1.43.58C290.05 5.85 286.26 3 280.89 3c-7.26 0-11.18 4.28-11.18 11.08l23.75 26.3h.06c2.49-3.69 3.56-8.29 3.56-12.37h1.52c0 4.41-1.2 9.46-4.05 13.48v.1l6.54 7.26h-2.01l-5.44-6.03zm-14.28 4.77c6.06 0 10.33-2.43 13.19-5.9v-.06l-16.88-18.66c-5.15 2.36-9.17 7.61-9.17 12.99 0 6.48 5.05 11.63 12.86 11.63zM358.07 1.72l-16.52 25.69v21.45h-1.52V27.41L323.61 1.72h1.85l15.26 23.94h.13l15.39-23.94h1.85zM388.54 16.72v32.13h-1.46v-8.81h-.06c-2.3 5.31-7.32 9.04-13.87 9.04-8.78 0-15.91-6.38-15.91-15.97s6.38-16.62 15.97-16.62c6.06 0 11.34 3.53 13.77 9.27h.1v-9.04h1.46zm-15.39 30.87c7.68 0 13.93-5.8 13.93-14.48s-5.57-15.13-13.87-15.13-14.48 6.09-14.48 15.13c0 8 5.73 14.48 14.42 14.48zM425.22 29.51v19.34h-1.46V30.22c0-8.97-4.34-12.25-9.59-12.25-8.1 0-13.51 6.03-13.51 15v15.87h-1.46V16.72h1.46v8.58h.06c2.3-5.47 7.13-8.81 13.44-8.81 6.77 0 11.05 4.67 11.05 13.02zM464.37 16.71v31.46c0 8.29-4.89 14.03-14.71 14.03-4.79 0-8.84-1.13-13.09-3.73l.42-1.56c4.18 2.69 8.1 3.79 12.76 3.79 9.01 0 13.15-5.38 13.15-12.83v-8.71h-.1c-2.27 5.31-7.13 8.91-13.86 8.91-8.55 0-15.49-6.28-15.49-16.04 0-8.52 6.22-15.55 15.55-15.55 6.25 0 11.43 3.3 13.8 8.62h.1v-8.39h1.46zm-15.42 29.87c8.62 0 13.96-6.32 13.96-14.54s-6.03-14.06-13.9-14.06c-8.46 0-14.06 6.35-14.06 14.06 0 8.88 6.22 14.54 13.99 14.54zM515.67 49.08c-12.63 0-23-8.29-23-23.55 0-13.35 8.07-24.04 23-24.04 6.48 0 12.92 2.62 17.95 8.91l-1.26 1c-4.67-5.93-10.66-8.36-16.68-8.36-13.93 0-21.44 9.85-21.44 22.48 0 14.32 9.59 22 21.44 22 7.65 0 12.8-3.37 16.68-8.26l1.26.97c-4.15 5.18-9.69 8.84-17.95 8.84zM570.37 16.72v32.13h-1.46v-8.81h-.06c-2.3 5.31-7.32 9.04-13.87 9.04-8.78 0-15.91-6.38-15.91-15.97s6.38-16.62 15.97-16.62c6.06 0 11.34 3.53 13.77 9.27h.1v-9.04h1.46zm-15.39 30.87c7.68 0 13.93-5.8 13.93-14.48s-5.57-15.13-13.87-15.13-14.48 6.09-14.48 15.13c0 8 5.73 14.48 14.42 14.48zM581.4 0h1.46v48.85h-1.46V0zM593.59 32.75v.06c0 8.52 5.7 14.77 13.77 14.77 5.09 0 8.91-2.04 11.5-5.34l1.13.84c-2.75 3.73-6.96 5.99-12.5 5.99-9.04 0-15.39-6.9-15.39-16.26s6.64-16.33 15.26-16.33 14.03 6.54 14.03 15.32c0 .16-.03.84-.06.94H593.6zm.07-1.46h26.24c-.52-8.03-5.34-13.31-12.54-13.31s-13.02 5.6-13.7 13.31zM656.03 29.51v19.34h-1.46V30.22c0-8.97-4.34-12.25-9.59-12.25-8.1 0-13.51 6.03-13.51 15v15.87h-1.46V16.72h1.46v8.58h.06c2.3-5.47 7.13-8.81 13.44-8.81 6.77 0 11.05 4.67 11.05 13.02zM695.6 0v48.85h-1.46v-8.81h-.1c-2.3 5.31-7.32 9.04-13.83 9.04-8.81 0-15.94-6.38-15.94-15.97s6.38-16.62 15.94-16.62c6.09 0 11.37 3.53 13.8 9.27h.13V0h1.46zm-15.39 47.59c7.65 0 13.93-5.8 13.93-14.48s-5.6-15.13-13.93-15.13-14.48 6.09-14.48 15.13c0 8 5.77 14.48 14.48 14.48zM735.65 16.72v32.13h-1.46v-8.81h-.06c-2.3 5.31-7.32 9.04-13.87 9.04-8.78 0-15.91-6.38-15.91-15.97s6.38-16.62 15.97-16.62c6.06 0 11.34 3.53 13.77 9.27h.1v-9.04h1.46zm-15.39 30.87c7.68 0 13.93-5.8 13.93-14.48s-5.57-15.13-13.87-15.13-14.48 6.09-14.48 15.13c0 8 5.73 14.48 14.42 14.48zM761.48 16.55v1.55c-.68-.06-1.33-.13-1.94-.13-7.06 0-11.76 6.03-11.76 14.84v16.03h-1.46V16.72h1.46v7.94h.1c1.91-5.02 5.86-8.16 11.47-8.16.75 0 1.46 0 2.14.06z"/></g></svg>